<svg xmlns="http://www.w3.org/2000/svg" viewBox="0 0 64 64" width="64" height="64">
  <path d="M20 51C11 46 3 49 4 56" fill="none" stroke="#9F8B78" stroke-width="5" stroke-linecap="round"/>
  <ellipse cx="33" cy="42" rx="19" ry="20" fill="#BBA58D"/>
  <ellipse cx="45" cy="21" rx="13" ry="15" transform="rotate(27 45 21)" fill="#BBA58D"/>
  <ellipse cx="30" cy="26" rx="9" ry="7" transform="rotate(-24 30 26)" fill="#9F8B78"/>
  <ellipse cx="47" cy="36" rx="8" ry="10" transform="rotate(-25 47 36)" fill="#9F8B78"/>
  <path d="M49 44C52 39 52 33 49 32C46 31 44 38 42 45" fill="#DAB2AA"/>
  <path d="M42 16L35 6M44 16L38 4M53 24L62 25M52 27L61 34" stroke="#CDBFB5" stroke-width="2" stroke-linecap="round"/>
  <ellipse cx="52" cy="16" rx="4" ry="6" transform="rotate(-48 52 16)" fill="#DAB2AA"/>
  <ellipse cx="50" cy="27" rx="3" ry="5" transform="rotate(28 50 27)" fill="#DAB2AA"/>
  <path d="M47 22C44 22 42 27 44 30" stroke="#4A3728" stroke-width="2.2" fill="none" stroke-linecap="round"/>
</svg>
