<svg xmlns="http://www.w3.org/2000/svg" viewBox="0 0 64 64" width="64" height="64">
  <!-- Left ear -->
  <ellipse cx="16" cy="18" rx="11" ry="11" fill="#C4A882"/>
  <ellipse cx="16" cy="18" rx="7" ry="7" fill="#F0C4BB"/>
  <!-- Right ear -->
  <ellipse cx="48" cy="18" rx="11" ry="11" fill="#C4A882"/>
  <ellipse cx="48" cy="18" rx="7" ry="7" fill="#F0C4BB"/>
  <!-- Head -->
  <ellipse cx="32" cy="36" rx="22" ry="20" fill="#D4B896"/>
  <!-- Eyes -->
  <circle cx="24" cy="32" r="4" fill="#4A3728"/>
  <circle cx="40" cy="32" r="4" fill="#4A3728"/>
  <circle cx="25.2" cy="30.8" r="1.4" fill="#fff"/>
  <circle cx="41.2" cy="30.8" r="1.4" fill="#fff"/>
  <!-- Nose -->
  <ellipse cx="32" cy="41" rx="3.5" ry="2.5" fill="#E8A0A0"/>
  <!-- Mouth -->
  <path d="M29 44 Q32 47 35 44" stroke="#9A6B5A" stroke-width="1.2" fill="none" stroke-linecap="round"/>
  <!-- Whiskers left -->
  <line x1="28" y1="41" x2="12" y2="39" stroke="#9A6B5A" stroke-width="0.8" stroke-linecap="round" opacity="0.6"/>
  <line x1="28" y1="43" x2="12" y2="44" stroke="#9A6B5A" stroke-width="0.8" stroke-linecap="round" opacity="0.6"/>
  <!-- Whiskers right -->
  <line x1="36" y1="41" x2="52" y2="39" stroke="#9A6B5A" stroke-width="0.8" stroke-linecap="round" opacity="0.6"/>
  <line x1="36" y1="43" x2="52" y2="44" stroke="#9A6B5A" stroke-width="0.8" stroke-linecap="round" opacity="0.6"/>
</svg>
